<svg width="259" height="265" viewBox="0 0 259 265" fill="none" xmlns="http://www.w3.org/2000/svg">
<g filter="url(#filter0_f_0_1)">
<ellipse cx="129.472" cy="132.441" rx="48.0763" ry="79.0967" transform="rotate(-42.249 129.472 132.441)" fill="#23284E"/>
</g>
<g clip-path="url(#clip0_0_1)">
<path d="M178.232 161.736L135.972 199.475C128.192 194.849 120.838 189.539 114 183.608L164.941 138.114C170.064 145.578 174.512 153.483 178.232 161.736Z" fill="#10142C"/>
<path d="M164.942 138.114L114 183.609C107.292 177.834 100.973 171.621 95.0866 165.01L148.592 117.227C154.497 123.82 159.959 130.798 164.942 138.114Z" fill="#171A35"/>
<path d="M196.364 190.279L179.329 205.49C175.603 208.817 170.418 210.152 164.238 209.72L191.769 185.133L196.364 190.279Z" fill="#10111C"/>
<path d="M183.204 175.544L191.768 185.134L164.238 209.721C156.169 209.156 146.403 205.576 135.972 199.475L178.232 161.736C180.237 166.205 181.899 170.821 183.204 175.544Z" fill="#111322"/>
<path d="M107.705 82.7627L65.4458 120.503C60.5591 109.451 58.1007 99.3446 58.448 91.2631L85.9798 66.6765L94.5443 76.2666C99.0898 78.0947 103.49 80.2664 107.705 82.7627Z" fill="#1E253F"/>
<path d="M64.3497 76.7452L81.3839 61.5334L85.9797 66.6765L58.4478 91.2635C58.7138 85.0739 60.6239 80.0727 64.3497 76.7452Z" fill="#222C49"/>
<path d="M95.0861 165.01C89.1809 158.417 83.719 151.439 78.7365 144.123L129.679 98.6275C136.387 104.402 142.706 110.615 148.592 117.226L95.0861 165.01Z" fill="#1A1E3A"/>
<path d="M129.679 98.6275L78.7368 144.123C73.614 136.66 69.1661 128.755 65.4459 120.503L107.705 82.7627C115.487 87.3878 122.84 92.6971 129.679 98.6275Z" fill="#1C223D"/>
<path d="M196.363 190.279C211.138 177.084 197.376 137.566 165.626 102.014C133.876 66.4616 96.1592 48.3375 81.3841 61.5326C66.6089 74.7277 80.3701 114.245 112.121 149.798C143.871 185.35 181.587 203.474 196.363 190.279Z" fill="url(#paint0_linear_0_1)"/>
<path d="M191.81 184.453C204.971 172.7 192.101 136.815 163.065 104.301C134.029 71.7882 99.821 54.9591 86.66 66.7126C73.4991 78.4662 86.3687 114.351 115.405 146.865C144.441 179.378 178.649 196.207 191.81 184.453Z" fill="url(#paint1_linear_0_1)"/>
<path d="M187.874 184.398C200.159 173.426 187.374 139.064 159.317 107.648C131.261 76.2317 98.557 59.6581 86.2716 70.6297C73.9862 81.6014 86.7713 115.964 114.828 147.38C142.885 178.796 175.588 195.37 187.874 184.398Z" fill="url(#paint2_linear_0_1)"/>
<path d="M135.136 126.963C133.15 125.373 131.673 123.902 129.553 123.7C132.569 126.693 133.011 129.932 134.544 134.321C135.071 135.83 136.246 137.219 137.042 139.182L148.003 148.275L141.25 132.877C139.239 130.739 137.17 128.58 135.137 126.963L135.136 126.963ZM138.47 127.34C132.922 115.272 136.376 112.96 140.358 110.257C140.999 109.818 141.654 109.369 142.296 108.842L136.226 94.5306L107.762 112.434L119.01 123.093C119.421 122.89 119.233 123.019 119.618 122.823C121.756 121.724 123.825 120.655 126.521 120.373L127.171 120.037C129.998 120.119 132.796 121.653 135.537 123.858C136.705 124.801 137.306 126.186 138.47 127.34L138.47 127.34ZM147.158 126.888C143.196 123.53 140.466 121.195 138.9 118.126C138.175 120.639 138.954 124.58 142.872 131.812L157.007 144.015L151.458 130.567C149.877 129.173 148.439 127.968 147.158 126.888ZM161.491 147.595L170.234 167.242L171.425 169.9L169.383 171.068L154.039 157.033L154.063 157.089L151.269 154.769L135.518 141.382L134.72 140.689L134.319 139.728C133.231 137.117 132.504 135.008 131.88 133.191C130.528 129.264 129.751 127.007 126.326 124.447C124.625 124.941 122.968 125.577 121.374 126.348C120.808 126.636 121.001 126.285 120.457 126.544L119.034 127.376L104.3 112.981L102.307 110.818L103.624 110.03L134.453 89.9548L136.66 89.1537L137.934 92.1422L145.764 110.395L146.176 111.349L145.825 111.655C145.068 112.287 144.275 112.874 143.451 113.413C142.551 113.979 141.707 114.631 140.933 115.359C141.491 118.671 143.718 120.582 147.678 123.944C149.226 125.251 150.992 126.735 153.008 128.547L153.841 129.292L154.246 130.264L161.491 147.595ZM152.779 152.555L165.272 162.65L158.689 148.027L145.463 135.873L152.779 152.555Z" fill="url(#paint3_linear_0_1)"/>
<path d="M136.024 126.007C134.056 124.457 132.027 123.349 129.937 123.165C132.93 126.089 133.953 128.948 135.496 133.259C136.027 134.741 136.631 136.428 137.43 138.355L149.459 148.473L142.089 131.785C140.093 129.695 138.039 127.585 136.024 126.007L136.024 126.007ZM139.311 126.354C133.754 114.51 137.14 112.208 141.041 109.517C141.668 109.08 142.31 108.632 142.939 108.108L136.853 94.0597L108.394 112.233L119.551 122.645C119.954 122.443 120.334 122.244 120.711 122.047C122.809 120.949 124.84 119.881 127.489 119.582L127.563 119.574C130.348 119.634 133.115 121.123 135.831 123.274C137.042 124.241 138.203 125.269 139.309 126.353L139.311 126.354ZM147.863 125.844C143.935 122.566 141.23 120.288 139.665 117.277C138.97 119.757 139.766 123.633 143.678 130.724L157.69 142.635L152.125 129.434C150.558 128.073 149.132 126.897 147.864 125.844L147.863 125.844ZM161.57 146.454L170.019 166.124L171.424 169.899L169.148 168.027L154.865 155.476L154.89 155.531L152.121 153.267L136.508 140.203L135.718 139.527L135.316 138.582C134.224 136.018 133.493 133.947 132.863 132.162C131.502 128.305 130.72 126.088 127.329 123.593C125.837 124.096 124.395 124.737 123.022 125.508C122.467 125.796 121.907 126.086 121.374 126.345L120.908 126.57L120.118 125.849L105.852 112.538L103.572 110.356L104.864 109.57L135.545 89.8611L136.676 89.0894L137.954 92.0228L145.802 109.941L146.215 110.878L145.872 111.181C145.132 111.809 144.355 112.393 143.547 112.931C142.665 113.494 141.84 114.142 141.083 114.866C141.657 118.123 143.865 119.988 147.79 123.269C149.324 124.544 151.076 125.993 153.074 127.762L153.9 128.489L154.306 129.443L161.57 146.454ZM153.03 151.403L166.272 161.94L159.377 146.571L145.696 135.031L153.03 151.403Z" fill="#26E2B3"/>
</g>
<defs>
<filter id="filter0_f_0_1" x="0.475586" y="0.54895" width="257.993" height="263.785" filterUnits="userSpaceOnUse" color-interpolation-filters="sRGB">
<feFlood flood-opacity="0" result="BackgroundImageFix"/>
<feBlend mode="normal" in="SourceGraphic" in2="BackgroundImageFix" result="shape"/>
<feGaussianBlur stdDeviation="32.5" result="effect1_foregroundBlur_0_1"/>
</filter>
<linearGradient id="paint0_linear_0_1" x1="160.83" y1="274.463" x2="88.0442" y2="272.947" gradientUnits="userSpaceOnUse">
<stop stop-color="#1D1B42"/>
<stop offset="1" stop-color="#2E3459"/>
</linearGradient>
<linearGradient id="paint1_linear_0_1" x1="171.374" y1="186.947" x2="107.055" y2="85.7234" gradientUnits="userSpaceOnUse">
<stop stop-color="#101119"/>
<stop offset="0.506" stop-color="#131828"/>
<stop offset="1" stop-color="#1A1F38"/>
</linearGradient>
<linearGradient id="paint2_linear_0_1" x1="182.797" y1="195.495" x2="104.573" y2="77.7481" gradientUnits="userSpaceOnUse">
<stop stop-color="#131628"/>
<stop offset="0.536" stop-color="#1E2242"/>
<stop offset="1" stop-color="#232749"/>
</linearGradient>
<linearGradient id="paint3_linear_0_1" x1="112.888" y1="66.0378" x2="148.427" y2="174.76" gradientUnits="userSpaceOnUse">
<stop stop-color="#A0D6BC"/>
<stop offset="0.342" stop-color="#28845B"/>
<stop offset="1" stop-color="#0F5B46"/>
</linearGradient>
<clipPath id="clip0_0_1">
<rect width="156.089" height="139.7" fill="white" transform="translate(64.6992 51.9087) rotate(9.35116)"/>
</clipPath>
</defs>
</svg>
