<svg width="318" height="327" viewBox="0 0 318 327" fill="none" xmlns="http://www.w3.org/2000/svg">
<g filter="url(#filter0_f_0_1)">
<ellipse cx="158.905" cy="163.357" rx="61.3969" ry="120.827" transform="rotate(42.4305 158.905 163.357)" fill="#23284E"/>
</g>
<g clip-path="url(#clip0_0_1)">
<path d="M93.7368 194.47L144.347 248.05C154.943 242.913 165.059 236.842 174.578 229.909L113.569 165.32C106.106 174.429 99.4686 184.184 93.7368 194.47Z" fill="#13152D"/>
<path d="M113.569 165.32L174.578 229.909C183.91 223.164 192.785 215.809 201.145 207.89L137.066 140.051C128.684 147.946 120.835 156.388 113.569 165.32Z" fill="#171A35"/>
<path d="M67.0864 229.467L87.4875 251.065C91.9492 255.789 98.5226 258.092 106.58 258.212L73.6091 223.306L67.0864 229.467Z" fill="#10111C"/>
<path d="M85.7684 211.82L73.6094 223.306L106.581 258.212C117.102 258.37 130.155 254.806 144.348 248.05L93.7369 194.47C90.6442 200.043 87.9803 205.843 85.7684 211.82Z" fill="#111322"/>
<path d="M193.864 99.8916L244.476 153.472C252.03 139.685 256.331 126.858 256.773 116.345L223.801 81.4407L211.642 92.9259C205.548 94.7933 199.604 97.1219 193.864 99.8916Z" fill="#1E253F"/>
<path d="M250.723 96.8763L230.323 75.2784L223.801 81.4408L256.773 116.346C257.109 108.294 255.185 101.6 250.723 96.8763Z" fill="#222C49"/>
<path d="M201.145 207.89C209.527 199.995 217.376 191.554 224.641 182.621L163.633 118.032C154.301 124.777 145.425 132.133 137.066 140.051L201.145 207.89Z" fill="#1A1E3A"/>
<path d="M163.633 118.032L224.641 182.621C232.105 173.513 238.742 163.759 244.474 153.473L193.862 99.8925C183.267 105.029 173.151 111.1 163.633 118.032Z" fill="#1C223D"/>
<path d="M180.744 186.294C225.821 143.716 248.018 94.0135 230.323 75.2802C212.628 56.5468 161.742 75.8764 116.665 118.454C71.5887 161.032 49.3914 210.734 67.0862 229.468C84.7811 248.201 135.667 228.871 180.744 186.294Z" fill="url(#paint0_linear_0_1)"/>
<path d="M176.81 182.129C218.034 143.191 238.674 98.0985 222.913 81.4119C207.151 64.7252 160.956 82.7635 119.732 121.702C78.509 160.64 57.8681 205.732 73.6297 222.419C89.3913 239.106 135.587 221.067 176.81 182.129Z" fill="url(#paint1_linear_0_1)"/>
<path d="M177.502 182.861C217.334 145.237 237.698 102.109 222.985 86.5329C208.272 70.9564 164.054 88.8296 124.222 126.454C84.3891 164.078 64.0259 207.206 78.7389 222.782C93.4519 238.359 137.67 220.485 177.502 182.861Z" fill="url(#paint2_linear_0_1)"/>
<path d="M151.184 145.751C152.97 143.026 154.662 140.964 154.664 138.235C151.215 142.445 147.14 143.403 141.73 145.892C139.871 146.748 138.244 148.415 135.837 149.669L125.582 164.751L144.39 154.265C146.87 151.441 149.371 148.54 151.185 145.751H151.184ZM151.109 150.049C165.82 141.505 169.187 145.627 173.119 150.375C173.755 151.138 174.408 151.919 175.159 152.673L192.665 143.192L166.374 109.084L154.154 124.72C154.461 125.219 154.273 124.996 154.571 125.463C156.233 128.055 157.847 130.562 158.535 133.965L159.042 134.753C159.282 138.367 157.667 142.121 155.19 145.884C154.13 147.489 152.437 148.423 151.108 150.048L151.109 150.049ZM152.743 161.069C156.542 155.609 159.187 151.845 162.909 149.475C159.618 148.856 154.686 150.329 145.944 156.203L132.109 175.71L148.577 166.999C150.162 164.814 151.523 162.833 152.743 161.069V161.069ZM128.091 181.865L104.108 195.404L100.864 197.246L99.1274 194.784L115.151 173.513L115.083 173.552L117.701 169.707L132.85 147.993L133.636 146.893L134.812 146.264C138.009 144.559 140.609 143.375 142.849 142.358C147.691 140.155 150.474 138.889 153.321 134.213C152.499 132.338 151.505 130.542 150.351 128.851C149.915 128.164 149.475 127.472 149.079 126.811L148.734 126.233L147.934 124.209L165.255 104.734L167.77 101.932L168.936 103.515L198.284 140.374L199.574 143.09L195.919 145.078L173.602 157.283L172.435 157.924L172.003 157.514C171.105 156.626 170.26 155.687 169.472 154.702C168.641 153.623 167.708 152.628 166.685 151.729C162.53 152.844 160.365 155.915 156.561 161.373C155.084 163.508 153.407 165.939 151.342 168.73L150.494 169.882L149.304 170.517L128.091 181.865ZM120.708 171.362L109.358 188.516L127.202 178.344L141.084 160.001L120.708 171.362Z" fill="url(#paint3_linear_0_1)"/>
<path d="M150.383 143.727C152.169 141.002 153.373 138.247 153.374 135.52C149.925 139.729 146.338 141.38 140.929 143.869C139.07 144.725 136.954 145.699 134.547 146.953L122.809 163.686L143.588 152.242C146.068 149.418 148.569 146.517 150.384 143.728L150.383 143.727ZM150.308 148.025C165.019 139.481 168.386 143.603 172.317 148.351C172.954 149.114 173.607 149.895 174.357 150.649L191.863 141.168L165.084 106.367L152.864 122.005C153.172 122.504 153.472 122.973 153.77 123.44C155.431 126.032 157.046 128.539 157.734 131.942L157.752 132.037C157.993 135.651 156.377 139.405 153.9 143.168C152.785 144.847 151.586 146.468 150.307 148.025H150.308ZM151.942 159.045C155.741 153.585 158.385 149.821 162.107 147.45C158.816 146.832 153.885 148.305 145.143 154.179L131.307 173.685L147.775 164.975C149.36 162.791 150.721 160.809 151.942 159.045ZM126.802 179.148L102.819 192.686L99.1274 194.782L101.541 191.023L114.35 171.488L114.281 171.526L116.899 167.682L132.05 145.97L132.835 144.87L134.011 144.241C137.208 142.535 139.808 141.35 142.048 140.334C146.89 138.132 149.674 136.865 152.52 132.19C151.699 130.314 150.705 128.519 149.55 126.828C149.114 126.142 148.674 125.45 148.278 124.788L147.933 124.21L148.778 123.104L164.402 103.109L166.97 99.9067L168.135 101.49L197.156 138.994L198.284 140.373L194.629 142.362L172.312 154.566L171.143 155.208L170.711 154.798C169.813 153.91 168.968 152.971 168.18 151.986C167.349 150.907 166.416 149.911 165.393 149.013C161.238 150.128 159.073 153.199 155.269 158.657C153.792 160.79 152.115 163.223 150.05 166.014L149.202 167.166L148.012 167.801L126.802 179.148ZM119.419 168.645L107.275 187.002L126.399 176.32L139.793 157.285L119.419 168.645Z" fill="#26E2B3"/>
</g>
<defs>
<filter id="filter0_f_0_1" x="0.617676" y="0.000518799" width="316.574" height="326.713" filterUnits="userSpaceOnUse" color-interpolation-filters="sRGB">
<feFlood flood-opacity="0" result="BackgroundImageFix"/>
<feBlend mode="normal" in="SourceGraphic" in2="BackgroundImageFix" result="shape"/>
<feGaussianBlur stdDeviation="32.5" result="effect1_foregroundBlur_0_1"/>
</filter>
<linearGradient id="paint0_linear_0_1" x1="61.0013" y1="152.373" x2="236.411" y2="152.373" gradientUnits="userSpaceOnUse">
<stop stop-color="#1D1B42"/>
<stop offset="1" stop-color="#2E3459"/>
</linearGradient>
<linearGradient id="paint1_linear_0_1" x1="67.7856" y1="227.955" x2="196.927" y2="105.972" gradientUnits="userSpaceOnUse">
<stop stop-color="#101119"/>
<stop offset="0.506" stop-color="#131828"/>
<stop offset="1" stop-color="#1A1F38"/>
</linearGradient>
<linearGradient id="paint2_linear_0_1" x1="63.8893" y1="176.168" x2="240.91" y2="132.384" gradientUnits="userSpaceOnUse">
<stop stop-color="#131628"/>
<stop offset="0.536" stop-color="#1E2242"/>
<stop offset="1" stop-color="#232749"/>
</linearGradient>
<linearGradient id="paint3_linear_0_1" x1="103.213" y1="78.0157" x2="168.91" y2="207.355" gradientUnits="userSpaceOnUse">
<stop stop-color="#A0D6BC"/>
<stop offset="0.342" stop-color="#28845B"/>
<stop offset="1" stop-color="#0F5B46"/>
</linearGradient>
<clipPath id="clip0_0_1">
<rect width="195.809" height="190.092" fill="white" transform="translate(61 68.125)"/>
</clipPath>
</defs>
</svg>
